# xmcd
#
# Track frame offsets:
#   151
#   23716
#   35192
#   49351
#   60458
#   74759
#   85978
#   101014
#   115113
#   132325
#   145116
#   160060
#   175024
#   189945
#   204027
#   218289
#   233103
#   247370
#   259407
#   273242
#
# Disc length: 3804 seconds
#
# Revision: 0
# Processed by: cddbd v1.5.2PL0 Copyright (c) Steve Scherf et al.
# Submitted via: GXTranscoder 2.0.1939
#
DISCID=210eda14
DTITLE=Ella Fritzgerald - Oginal songs CD2
DYEAR=2005
DGENRE=UnClassifiable
TTITLE0=you'll have to swing it
TTITLE1=that old black Magic
TTITLE2=I can´t get started
TTITLE3=goody goody
TTITLE4=Takin a charge on love
TTITLE5=walking by the river
TTITLE6=Mixed emotion
TTITLE7=smooth sailing
TTITLE8=Airmail special
TTITLE9=Blue Lou
TTITLE10=the hot canary
TTITLE11=Would you like to take a walk
TTITLE12=I've got the world on a string
TTITLE13=Dreasm a little dream on me
TTITLE14=crying
TTITLE15=How long has this been going on?
TTITLE16=basing street Blues
TTITLE17=in the evening
TTITLE18=I hadn´t anyone till you
TTITLE19=baby, it´s cold outside
EXTD=
EXTT0=
EXTT1=
EXTT2=
EXTT3=
EXTT4=
EXTT5=
EXTT6=
EXTT7=
EXTT8=
EXTT9=
EXTT10=
EXTT11=
EXTT12=
EXTT13=
EXTT14=
EXTT15=
EXTT16=
EXTT17=
EXTT18=
EXTT19=
PLAYORDER=
